<svg width="164" height="21" viewBox="0 0 164 21" fill="none" xmlns="http://www.w3.org/2000/svg">
<g clip-path="url(#clip0_541_10)">
<path fill-rule="evenodd" clip-rule="evenodd" d="M4.95775 0.499939H7.7813L7.78126 0.50001H7.78201L12.2527 8.10023H9.4292L6.36986 2.89937L3.66366 7.49989H0.840115L4.95775 0.499939ZM9.42852 8.90023L6.36969 14.1002L3.6636 9.49989H0.840057L4.95776 16.4999L4.95807 16.4999H7.78162L12.2521 8.90023H9.42852Z" fill="#373D82"/>
<path fill-rule="evenodd" clip-rule="evenodd" d="M20.134 0.499939H17.3104L17.3104 0.499987H17.3101L12.8393 8.10027H15.6628L18.722 2.89968L21.4281 7.49994H24.2516L20.134 0.499939ZM15.6628 8.90027L18.7218 14.1006L21.4281 9.49994H24.2516L20.134 16.4999H20.1332H17.3104H17.3097L12.8393 8.90027H15.6628Z" fill="#373D82"/>
</g>
<path d="M45.2976 16.3882C40.963 16.3882 38.138 13.2612 38.138 8.45217C38.138 3.64313 40.963 0.516172 45.2976 0.516172C49.6538 0.516172 52.4573 3.64313 52.4573 8.45217C52.4573 13.2612 49.6538 16.3882 45.2976 16.3882ZM45.2976 14.1023C48.0148 14.1023 49.7832 11.881 49.7832 8.45217C49.7832 5.0233 48.0148 2.80209 45.2976 2.80209C42.5804 2.80209 40.8121 5.0233 40.8121 8.45217C40.8121 11.881 42.5804 14.1023 45.2976 14.1023ZM55.1219 20.313V5.21739H57.6666V7.84835H58.0979C59.4781 5.584 60.4701 4.82922 61.8718 4.82922C64.395 4.82922 66.228 7.30922 66.228 10.7597C66.228 14.1238 64.4597 16.3882 61.8718 16.3882C60.4917 16.3882 59.435 15.6334 58.0979 13.6063H57.6666V20.313H55.1219ZM57.5588 10.7597C59.3056 13.3906 60.1035 14.1454 61.268 14.1454C62.6482 14.1454 63.6833 12.7221 63.6833 10.7597C63.6833 8.68939 62.6266 7.072 61.268 7.072C60.0819 7.072 59.4134 7.74052 57.5588 10.7597ZM68.5908 10.6087C68.5908 7.09356 70.6826 4.82922 73.8958 4.82922C77.0875 4.82922 79.1577 7.11513 79.1577 10.6303V11.0831H71.0708C71.2217 13.024 72.3431 14.2748 74.0252 14.2748C75.4916 14.2748 76.4836 13.4769 76.8502 12.032L79.1577 12.5711C78.4892 14.9864 76.613 16.3882 74.0252 16.3882C70.7473 16.3882 68.5908 14.1238 68.5908 10.6087ZM71.0923 9.81078H76.6777C76.4836 7.86991 75.4485 6.81322 73.8958 6.81322C72.3862 6.81322 71.3295 7.95617 71.0923 9.81078ZM81.9925 5.21739H84.5372V7.41704H84.947C86.2193 5.49774 87.3407 4.82922 88.8071 4.82922C90.8343 4.82922 92.0204 6.20939 92.0204 8.60313V16H89.4541V9.35791C89.4541 7.84835 88.915 7.1367 87.8151 7.1367C86.7153 7.1367 85.7664 8.04243 84.5372 10.2637V16H81.9925V5.21739ZM107.585 0.904346L101.396 16H98.9809L92.7917 0.904346H95.7245L100.016 11.9673H100.361L104.653 0.904346H107.585ZM107.465 10.6087C107.465 7.09356 109.556 4.82922 112.77 4.82922C115.961 4.82922 118.032 7.11513 118.032 10.6303V11.0831H109.945C110.096 13.024 111.217 14.2748 112.899 14.2748C114.365 14.2748 115.357 13.4769 115.724 12.032L118.032 12.5711C117.363 14.9864 115.487 16.3882 112.899 16.3882C109.621 16.3882 107.465 14.1238 107.465 10.6087ZM109.966 9.81078H115.552C115.357 7.86991 114.322 6.81322 112.77 6.81322C111.26 6.81322 110.203 7.95617 109.966 9.81078ZM131.067 12.2477C130.441 15.0511 128.5 16.3882 125.805 16.3882C122.592 16.3882 120.5 14.1454 120.5 10.6087C120.5 7.09356 122.57 4.82922 125.762 4.82922C128.306 4.82922 130.333 6.20939 130.98 8.90504L128.587 9.46574C128.22 7.95617 127.185 6.98574 125.848 6.98574C124.166 6.98574 123.066 8.40904 123.066 10.6087C123.066 12.7868 124.187 14.2101 125.891 14.2101C127.293 14.2101 128.263 13.3259 128.651 11.7517L131.067 12.2477ZM139.842 15.8706C139.108 16.0431 138.505 16.0863 137.793 16.0863C135.442 16.0863 134.213 14.8139 134.213 12.377V7.09356H132.747V5.21739H134.213V2.41391H136.758V5.21739H139.669V7.09356H136.758V12.377C136.758 13.4769 137.232 13.9944 138.224 13.9944C138.634 13.9944 138.936 13.9513 139.518 13.865L139.842 15.8706ZM147.096 16.3882C143.84 16.3882 141.726 14.1238 141.726 10.6087C141.726 7.09356 143.84 4.82922 147.096 4.82922C150.352 4.82922 152.487 7.09356 152.487 10.6087C152.487 14.1238 150.352 16.3882 147.096 16.3882ZM147.096 14.1454C148.843 14.1454 149.921 12.7868 149.921 10.6087C149.921 8.43061 148.843 7.072 147.096 7.072C145.371 7.072 144.293 8.43061 144.293 10.6087C144.293 12.7868 145.371 14.1454 147.096 14.1454ZM155.233 5.21739H157.778V7.71896H158.188C159.352 5.54087 160.172 4.82922 161.595 4.82922H162.221V7.84835H160.733C159.654 7.84835 158.792 8.64626 157.778 10.7165V16H155.233V5.21739Z" fill="#36383D"/>
<defs>
<clipPath id="clip0_541_10">
<rect width="23.412" height="16" fill="white" transform="translate(0.840057 0.5)"/>
</clipPath>
</defs>
</svg>
